<svg xmlns="http://www.w3.org/2000/svg" aria-hidden="true" style="position:absolute;width:0;height:0;overflow:hidden">
  <symbol id="bpmn-icon-play" viewBox="0 0 24 24">
    <polygon points="9,7 17,12 9,17" fill="currentColor" />
  </symbol>
  <symbol id="bpmn-icon-ring" viewBox="0 0 24 24">
    <circle cx="12" cy="12" r="6.5" fill="none" stroke="currentColor" stroke-width="1.8" />
  </symbol>
  <symbol id="bpmn-icon-clock" viewBox="0 0 24 24">
    <circle cx="12" cy="12" r="6.2" fill="none" stroke="currentColor" stroke-width="1.6" />
    <line x1="12" y1="12" x2="12" y2="8.6" stroke="currentColor" stroke-width="1.6" stroke-linecap="round" />
    <line x1="12" y1="12" x2="15" y2="13.8" stroke="currentColor" stroke-width="1.6" stroke-linecap="round" />
  </symbol>
  <symbol id="bpmn-icon-mail" viewBox="0 0 24 24">
    <rect x="5" y="7" width="14" height="10" rx="1.3" fill="none" stroke="currentColor" stroke-width="1.6" />
    <path d="M5.8 8 L12 12.7 L18.2 8" fill="none" stroke="currentColor" stroke-width="1.4" stroke-linecap="round" stroke-linejoin="round" />
  </symbol>
  <symbol id="bpmn-icon-stop" viewBox="0 0 24 24">
    <rect x="7.5" y="7.5" width="9" height="9" fill="currentColor" />
  </symbol>
  <symbol id="bpmn-icon-check" viewBox="0 0 24 24">
    <path d="M6.8 12.7 L10.3 16 L17.2 8.8" fill="none" stroke="currentColor" stroke-width="2.2" stroke-linecap="round" stroke-linejoin="round" />
  </symbol>
  <symbol id="bpmn-icon-user" viewBox="0 0 24 24">
    <circle cx="12" cy="9" r="2.6" fill="none" stroke="currentColor" stroke-width="1.6" />
    <path d="M7.5 17.2c1.2-2.3 2.8-3.5 4.5-3.5s3.3 1.2 4.5 3.5" fill="none" stroke="currentColor" stroke-width="1.6" stroke-linecap="round" />
  </symbol>
  <symbol id="bpmn-icon-gear" viewBox="0 0 24 24">
    <circle cx="12" cy="12" r="3.2" fill="none" stroke="currentColor" stroke-width="1.6" />
    <path d="M12 5.5v2.1M12 16.4v2.1M5.5 12h2.1M16.4 12h2.1M7.6 7.6l1.5 1.5M14.9 14.9l1.5 1.5M16.4 7.6l-1.5 1.5M9.1 14.9l-1.5 1.5" stroke="currentColor" stroke-width="1.4" stroke-linecap="round" />
  </symbol>
  <symbol id="bpmn-icon-code" viewBox="0 0 24 24">
    <path d="M9.5 8.2 L6.2 12 L9.5 15.8 M14.5 8.2 L17.8 12 L14.5 15.8" fill="none" stroke="currentColor" stroke-width="1.8" stroke-linecap="round" stroke-linejoin="round" />
  </symbol>
  <symbol id="bpmn-icon-replay" viewBox="0 0 24 24">
    <path d="M8 8h7.2M15.2 8l-2.2-2.2M15.2 8L13 10.2M16 16H8.8M8.8 16l2.2 2.2M8.8 16l2.2-2.2" fill="none" stroke="currentColor" stroke-width="1.8" stroke-linecap="round" stroke-linejoin="round" />
  </symbol>
  <symbol id="bpmn-icon-plus-box" viewBox="0 0 24 24">
    <rect x="6.5" y="6.5" width="11" height="11" rx="1.8" fill="none" stroke="currentColor" stroke-width="1.6" />
    <path d="M12 9v6M9 12h6" stroke="currentColor" stroke-width="1.8" stroke-linecap="round" />
  </symbol>
  <symbol id="bpmn-icon-x" viewBox="0 0 24 24">
    <path d="M8 8 L16 16 M16 8 L8 16" stroke="currentColor" stroke-width="2.2" stroke-linecap="round" />
  </symbol>
  <symbol id="bpmn-icon-plus" viewBox="0 0 24 24">
    <path d="M12 7 L12 17 M7 12 L17 12" stroke="currentColor" stroke-width="2.2" stroke-linecap="round" />
  </symbol>
  <symbol id="bpmn-icon-circle" viewBox="0 0 24 24">
    <circle cx="12" cy="12" r="4.8" fill="none" stroke="currentColor" stroke-width="2" />
  </symbol>
  <symbol id="bpmn-icon-file" viewBox="0 0 24 24">
    <path d="M7 5.5h7l3 3v10H7z" fill="none" stroke="currentColor" stroke-width="1.6" />
    <path d="M14 5.5v3h3" fill="none" stroke="currentColor" stroke-width="1.6" />
  </symbol>
  <symbol id="bpmn-icon-question" viewBox="0 0 24 24">
    <path d="M9.5 9.3a2.7 2.7 0 1 1 4.1 2.3c-.9.6-1.6 1.1-1.6 2" fill="none" stroke="currentColor" stroke-width="1.8" stroke-linecap="round" />
    <circle cx="12" cy="17.2" r="1" fill="currentColor" />
  </symbol>
  <symbol id="bpmn-icon-sequence-flow" viewBox="0 0 24 24">
    <path d="M4 12h13" fill="none" stroke="currentColor" stroke-width="2" />
    <path d="M17 8.8 L21 12 L17 15.2z" fill="currentColor" />
  </symbol>
  <symbol id="bpmn-icon-association" viewBox="0 0 24 24">
    <path d="M4 12h16" fill="none" stroke="currentColor" stroke-width="2" stroke-dasharray="4 3" />
  </symbol>
</svg>
